<svg width="95" height="100" viewBox="0 0 95 100" fill="none" xmlns="http://www.w3.org/2000/svg">
<path fill-rule="evenodd" clip-rule="evenodd" d="M94.5614 15.947C94.5451 15.6777 94.5237 15.4084 94.4904 15.1398C94.1958 12.4979 93.3197 9.96563 91.9323 7.74611C89.7738 4.2845 86.5114 1.75704 82.7386 0.623617C81.4781 0.245407 80.1772 0.0378569 78.8672 0.0059651H78.1552C77.8546 0.0059651 77.5546 0.0059651 77.2539 0.0059651H73.5543H51.9276C49.0815 0.00995417 46.2354 0.000646341 43.3899 0.0059651C34.1888 0.0059651 24.9875 0.00398907 15.786 0C13.8897 0.0445125 12.0164 0.44989 10.2561 1.19671C7.31456 2.43648 4.77827 4.55488 2.95696 7.29317C1.13566 10.0315 0.108174 13.2711 0 16.6165V83.3888C0.00817668 83.6095 0.0213848 83.8303 0.0377382 84.0537C0.0540916 84.3196 0.0754773 84.5915 0.108813 84.8601C0.403372 87.5021 1.27947 90.0344 2.66686 92.2539C4.82547 95.7154 8.08788 98.2428 11.8606 99.3764C13.1211 99.7546 14.422 99.9621 15.7319 99.994H16.4439C16.7446 99.994 17.0446 99.994 17.3453 99.994H21.0449H42.6716C45.5164 99.9893 48.3613 99.9993 51.2062 99.994C60.4085 99.994 69.6108 99.996 78.8131 100C80.7097 99.9555 82.5832 99.5501 84.3437 98.8033C87.2862 97.5629 89.8231 95.4433 91.6445 92.7036C93.4658 89.9639 94.4928 86.7228 94.5998 83.3762V16.6085C94.591 16.3878 94.5778 16.167 94.5614 15.947Z" fill="#0B64A8"/>
<path fill-rule="evenodd" clip-rule="evenodd" d="M31.0799 9.12208C31.5855 8.57589 32.1937 8.14766 32.8653 7.86495C33.537 7.58223 34.2572 7.45131 34.9796 7.48058H59.0882C59.4656 7.48058 59.843 7.47461 60.2203 7.49389C61.0264 7.5611 61.8066 7.82583 62.4991 8.26712C63.1916 8.70841 63.7774 9.31411 64.2099 10.0362C64.7437 10.9184 65.0218 11.9464 65.01 12.9935C65.01 19.0866 65.01 25.181 65.01 31.2767C70.8557 31.2907 76.702 31.2767 82.5477 31.2834C83.7844 31.3412 84.9614 31.8616 85.8687 32.7518C86.776 33.642 87.3544 34.8441 87.5009 36.1434C87.5638 36.8348 87.5292 37.5309 87.5374 38.2237C87.5374 46.5515 87.5374 54.8789 87.5374 63.2059C87.5405 64.4675 87.1346 65.6921 86.3873 66.6758C85.6399 67.6594 84.5962 68.3427 83.4302 68.6117C82.8835 68.7196 82.3271 68.7613 81.7716 68.7361C76.1875 68.7361 70.603 68.7361 65.0182 68.7361C64.9962 74.8826 65.0182 81.0297 65.0068 87.1762C64.9854 88.484 64.5161 89.7392 63.686 90.7092C62.81 91.7429 61.5968 92.3885 60.2895 92.5169C59.7329 92.5701 59.1706 92.5275 58.612 92.5415H34.9167C34.2189 92.5586 33.525 92.4273 32.8763 92.1553C32.2275 91.8833 31.6371 91.4762 31.1401 90.9582C30.6432 90.4402 30.2499 89.8218 29.9836 89.1399C29.7172 88.458 29.5834 87.7264 29.5899 86.9887C29.5874 80.9142 29.5861 74.8396 29.5861 68.7646L29.5232 68.7354C23.763 68.7354 18.0033 68.7354 12.244 68.7354C11.4734 68.731 10.7134 68.5459 10.0188 68.1932C9.32415 67.8406 8.71228 67.3293 8.22736 66.6963C7.43434 65.6566 7.01917 64.3514 7.05683 63.0164C7.05683 54.6269 7.05683 46.2371 7.05683 37.8467C7.02544 37.1298 7.06168 36.4113 7.16501 35.7019C7.40751 34.4407 8.05946 33.3087 9.00807 32.5018C9.95668 31.695 11.1423 31.2639 12.3597 31.2834C18.1029 31.2787 23.8467 31.2927 29.5892 31.2761C29.5922 25.6652 29.5922 20.0541 29.5892 14.4428C29.593 13.7919 29.5767 13.1404 29.6037 12.4909C29.7088 11.2208 30.2308 10.0295 31.0793 9.12342L31.0799 9.12208Z" fill="#FEFEFE"/>
<path fill-rule="evenodd" clip-rule="evenodd" d="M45.3582 41.075C45.179 41.1115 44.9456 41.1654 44.8922 41.3808C44.8708 41.6747 44.8922 41.9705 44.8834 42.2651C44.8834 46.4292 44.8834 50.5931 44.8834 54.7568C44.8769 54.8226 44.8912 54.8889 44.9241 54.9452C44.9569 55.0015 45.0066 55.0446 45.0651 55.0679C45.3346 55.163 45.6177 55.208 45.9017 55.2009C46.2832 55.2245 46.666 55.1913 47.0389 55.1025C47.1149 55.0898 47.1837 55.0476 47.232 54.9842C47.2802 54.9208 47.3044 54.8407 47.2999 54.7595C47.2999 53.1811 47.3043 51.6028 47.2999 50.0244C48.2956 51.642 49.2497 53.2875 50.2397 54.9111C50.3296 55 50.4352 55.0693 50.5505 55.1149C50.6658 55.1605 50.7885 55.1816 50.9115 55.177C51.3711 55.2157 51.833 55.2121 52.2921 55.1664C52.4756 55.1678 52.6537 55.101 52.7953 54.9775C52.9211 54.7189 52.7531 54.435 52.633 54.2123C51.6656 52.6247 50.6966 51.0386 49.7259 49.454C50.5435 48.4514 51.3832 47.4628 52.2084 46.4655C52.3063 46.3623 52.3832 46.2391 52.4344 46.1034C52.4857 45.9677 52.5102 45.8224 52.5066 45.6764C52.4669 45.4922 52.2675 45.4377 52.1178 45.4038C51.6805 45.338 51.2378 45.3208 50.797 45.3526C50.488 45.3338 50.1839 45.4409 49.9473 45.6518C49.0573 46.8917 48.193 48.1536 47.3005 49.3922C47.3064 46.7434 47.3064 44.0947 47.3005 41.446C47.2968 41.18 47.0055 41.1056 46.8036 41.0703C46.3251 40.9956 45.8387 40.9974 45.3608 41.0756L45.3582 41.075Z" fill="#0B64A8"/>
<path fill-rule="evenodd" clip-rule="evenodd" d="M30.8292 43.0048C30.6537 43.0394 30.4116 43.1098 30.3889 43.3332C30.372 44.0227 30.3971 44.7135 30.3764 45.4029C30.021 45.4029 29.665 45.391 29.3103 45.4029C29.1272 45.4255 29.0587 45.6369 29.0278 45.8018C28.9634 46.2168 28.9634 46.6401 29.0278 47.055C29.0637 47.2339 29.1536 47.4712 29.3618 47.4646C29.6977 47.4679 30.0342 47.4699 30.3682 47.4606C30.3946 48.7557 30.372 50.0535 30.3801 51.3479C30.2919 52.2837 30.4196 53.2282 30.7525 54.1004C30.9039 54.3956 31.116 54.6513 31.373 54.8486C31.6301 55.0459 31.9257 55.1798 32.2381 55.2406C32.946 55.3969 33.6787 55.3741 34.3766 55.1741C34.6018 55.1023 34.8698 54.9979 34.9427 54.7327C35.0488 54.2881 35.0702 53.8258 35.0056 53.3724C34.9735 53.2268 34.9754 53.0014 34.7993 52.9735C34.5697 52.9854 34.3697 53.1364 34.1427 53.1729C33.9589 53.2293 33.7648 53.236 33.578 53.1924C33.3911 53.1489 33.2177 53.0564 33.0734 52.9236C32.8603 52.5702 32.7606 52.1536 32.7891 51.7355C32.7891 50.3141 32.7835 48.8934 32.7935 47.4719C33.4319 47.4719 34.0716 47.4819 34.7094 47.4686C34.971 47.3974 34.9968 47.0517 35.0239 46.815C35.062 46.4352 35.0407 46.0514 34.961 45.6788C34.9474 45.6077 34.9123 45.5432 34.8608 45.4952C34.8094 45.4472 34.7445 45.4183 34.676 45.4129C34.0471 45.4036 33.4181 45.4129 32.7891 45.4082C32.7891 44.7228 32.796 44.0373 32.7853 43.3519C32.7608 43.1092 32.4922 43.0414 32.3035 43.0075C31.8132 42.9431 31.3171 42.9455 30.8273 43.0148L30.8292 43.0048Z" fill="#0B64A8"/>
<path fill-rule="evenodd" clip-rule="evenodd" d="M18.2494 46.3866C17.7909 45.7892 17.1348 45.3983 16.414 45.2929C15.0057 45.0128 13.55 45.1918 12.2401 45.8062C11.9828 45.9075 11.7573 46.0827 11.5891 46.3121C11.4731 46.587 11.4315 46.8906 11.469 47.1891C11.4609 47.3314 11.4804 47.474 11.5261 47.6082C11.5718 47.7424 11.6429 47.8654 11.7351 47.9696C11.9319 48.0853 12.1508 47.949 12.3294 47.8559C13.0817 47.3903 13.9331 47.1335 14.8045 47.1093C15.0549 47.0746 15.3095 47.1032 15.5474 47.1928C15.7854 47.2824 15.9998 47.4303 16.1731 47.6245C16.424 48.1568 16.5184 48.7563 16.4442 49.3458C15.5653 49.3129 14.6853 49.3613 13.8144 49.4907C12.9595 49.5846 12.1618 49.9892 11.5577 50.6356C11.3276 50.9491 11.1608 51.3091 11.0675 51.6935C10.9743 52.0778 10.9566 52.4783 11.0155 52.8701C11.0463 53.2394 11.1511 53.5974 11.323 53.9204C11.4949 54.2435 11.7299 54.5241 12.0124 54.7437C12.7562 55.2507 13.6446 55.466 14.5231 55.3522C15.4015 55.2383 16.2144 54.8026 16.8203 54.1207C16.8203 54.3754 16.8077 54.6313 16.8247 54.8866C16.8448 55.1007 17.0763 55.1526 17.2411 55.1758C17.6387 55.218 18.0395 55.2136 18.4362 55.1625C18.6041 55.1359 18.8255 55.0422 18.8135 54.8241C18.8173 52.7622 18.8173 50.7012 18.8135 48.6411C18.8452 47.8466 18.6485 47.0606 18.2494 46.3866V46.3866ZM14.9944 53.5336C14.7479 53.6 14.4893 53.5975 14.2439 53.5264C13.9986 53.4553 13.775 53.3181 13.5949 53.1281C13.4917 52.9843 13.4184 52.8191 13.38 52.6432C13.3416 52.4674 13.3388 52.2849 13.3719 52.1078C13.405 51.9308 13.4732 51.7631 13.572 51.6159C13.6709 51.4687 13.7981 51.3454 13.9453 51.2539C14.7183 50.8437 15.6114 50.9707 16.4455 50.9461C16.4455 51.4607 16.4455 51.9759 16.4455 52.4905C16.0806 52.9946 15.5714 53.3605 14.9938 53.5336H14.9944Z" fill="#0B64A8"/>
<path fill-rule="evenodd" clip-rule="evenodd" d="M28.736 48.1547C28.5666 47.2088 28.0805 46.3592 27.3668 45.7613C26.9716 45.4839 26.5266 45.2955 26.0595 45.2081C25.5924 45.1207 25.1133 45.1362 24.6521 45.2534C23.7671 45.5296 22.9744 46.0653 22.3658 46.7984C22.362 46.4228 22.3771 46.0465 22.3595 45.6682C22.3293 45.4734 22.1211 45.4109 21.9645 45.3783C21.5503 45.3148 21.1296 45.3148 20.7153 45.3783C20.5399 45.4056 20.3141 45.5113 20.3241 45.7334C20.3203 49.9387 20.3203 54.1439 20.3241 58.3488C20.321 58.4182 20.3386 58.4869 20.3744 58.5452C20.4101 58.6035 20.4623 58.6485 20.5235 58.6739C20.8147 58.7791 21.1218 58.8258 21.4292 58.8115C21.7847 58.8339 22.1412 58.796 22.4853 58.6992C22.5601 58.6811 22.6266 58.6359 22.6733 58.5714C22.7199 58.5069 22.7437 58.4272 22.7406 58.3461C22.7463 56.9367 22.7331 55.5272 22.7476 54.1177C23.2662 54.7325 23.9574 55.1556 24.72 55.3251C25.195 55.404 25.6803 55.3786 26.1456 55.2506C26.6109 55.1226 27.0463 54.8947 27.4246 54.5811C28.1791 53.8488 28.6685 52.8613 28.8084 51.7887C29.0114 50.5842 28.9868 49.3491 28.736 48.1547V48.1547ZM26.1302 52.0241C25.9682 52.4875 25.6449 52.868 25.2264 53.0879C25.005 53.1804 24.7659 53.2153 24.5291 53.1896C24.2923 53.1639 24.0648 53.0784 23.8659 52.9403C23.4379 52.6174 23.0591 52.2273 22.7425 51.7834C22.7369 50.8161 22.7425 49.8487 22.7425 48.8814C22.7287 48.7777 22.813 48.7065 22.8639 48.6301C23.195 48.1354 23.6381 47.7363 24.1527 47.4693C24.399 47.3542 24.6708 47.3141 24.9375 47.3534C25.2042 47.3928 25.4552 47.51 25.6622 47.692C26.0689 48.1309 26.3165 48.707 26.3617 49.3195C26.5084 50.227 26.4286 51.1592 26.1302 52.0241V52.0241Z" fill="#0B64A8"/>
<path fill-rule="evenodd" clip-rule="evenodd" d="M43.5714 47.8726C43.3515 47.0016 42.8256 46.2521 42.1009 45.777C41.2586 45.2816 40.2916 45.0748 39.3334 45.1852C38.2663 45.2369 37.2618 45.7323 36.5388 46.5635C35.831 47.4926 35.433 48.6426 35.4067 49.8352C35.3335 50.826 35.4441 51.8225 35.7325 52.7685C35.9903 53.5715 36.5062 54.2538 37.1904 54.6965C38.0881 55.2029 39.1007 55.4371 40.1164 55.3733C40.8825 55.3587 41.6436 55.2394 42.3807 55.0183C42.6518 54.944 42.9123 54.8323 43.1556 54.6859C43.2389 54.5967 43.3025 54.4892 43.3421 54.3711C43.3817 54.253 43.3962 54.1271 43.3846 54.0024C43.4056 53.6977 43.3957 53.3914 43.355 53.0889C43.3506 53.0183 43.321 52.9521 43.2722 52.9036C43.2234 52.8551 43.1591 52.828 43.0921 52.8277C42.8612 52.8654 42.6359 52.9351 42.4223 53.0351C41.5689 53.3671 40.6575 53.4998 39.751 53.424C39.4767 53.4086 39.2081 53.335 38.9613 53.2075C38.7145 53.08 38.4945 52.9013 38.3144 52.682C37.977 52.1655 37.8121 51.5449 37.8458 50.9182C39.5755 50.9182 41.3052 50.9182 43.0349 50.9182C43.2187 50.9303 43.4003 50.8709 43.5456 50.7513C43.6211 50.6743 43.6813 50.5823 43.7229 50.4805C43.7645 50.3787 43.7865 50.2692 43.7878 50.1583C43.8349 49.389 43.7618 48.6168 43.5714 47.8726V47.8726ZM41.4505 49.2747H37.8427C37.8487 48.7215 38.0012 48.1812 38.283 47.715C38.423 47.5031 38.6065 47.3272 38.8197 47.2006C39.0329 47.074 39.2704 46.9998 39.5145 46.9837C39.7757 46.9455 40.0417 46.9707 40.2924 47.0573C40.543 47.144 40.7717 47.2897 40.9611 47.4836C41.332 47.9931 41.5069 48.632 41.4505 49.2721V49.2747Z" fill="#0B64A8"/>
<path fill-rule="evenodd" clip-rule="evenodd" d="M60.144 46.3858C59.6869 45.7892 59.0324 45.3985 58.3131 45.2928C57.0552 45.0441 55.7573 45.1571 54.5549 45.6199C54.2048 45.7378 53.8782 45.9229 53.5913 46.1657C53.4879 46.3106 53.4142 46.4768 53.3751 46.6536C53.336 46.8304 53.3323 47.0139 53.3643 47.1923C53.3553 47.4631 53.4373 47.7285 53.5957 47.9415C53.7763 48.0958 54.0172 47.9655 54.1939 47.8704C54.9545 47.3963 55.8165 47.134 56.6991 47.1078C56.9436 47.0757 57.1919 47.1027 57.4251 47.1866C57.6583 47.2706 57.8706 47.4094 58.0458 47.5925C58.3157 48.1292 58.4181 48.7424 58.3382 49.3444C57.0097 49.2348 55.6742 49.4198 54.4172 49.8875C53.8395 50.1431 53.3728 50.6172 53.1083 51.2172C52.8817 51.8202 52.8251 52.4797 52.9454 53.116C53.0541 53.7687 53.3974 54.3516 53.9033 54.7429C54.4449 55.1334 55.082 55.3496 55.7374 55.3652C56.4461 55.4246 57.1555 55.2605 57.7759 54.8938C58.1194 54.6799 58.4349 54.4193 58.7143 54.1186C58.7143 54.3732 58.7024 54.6292 58.7181 54.8838C58.7364 55.1026 58.9697 55.1551 59.1414 55.1777C59.539 55.2202 59.9399 55.2153 60.3365 55.1631C60.5044 55.1365 60.7252 55.0428 60.7107 54.824C60.7145 52.7621 60.7145 50.7011 60.7107 48.6409C60.7408 47.8461 60.5433 47.0601 60.144 46.3858V46.3858ZM56.9677 53.5136C56.7452 53.578 56.5122 53.5914 56.2844 53.5529C56.0566 53.5144 55.8392 53.4248 55.6468 53.2902C55.4492 53.1035 55.3146 52.8538 55.2635 52.5788C55.2124 52.3039 55.2476 52.0189 55.3638 51.767C55.4863 51.555 55.6546 51.3767 55.8549 51.2468C56.0552 51.1169 56.2818 51.0391 56.5161 51.0197C57.1214 50.9463 57.7312 50.9221 58.3401 50.9473C58.3401 51.4605 58.3401 51.9751 58.3401 52.4897C57.9891 52.9676 57.5113 53.3241 56.9677 53.5136V53.5136Z" fill="#0B64A8"/>
<path fill-rule="evenodd" clip-rule="evenodd" d="M74.2028 45.0687C74.6229 45.038 75.0449 45.0578 75.4607 45.1279C75.628 45.1598 75.8343 45.2728 75.8167 45.4856C75.8224 47.2933 75.8085 49.1017 75.8236 50.9094C75.7969 51.4578 75.9527 51.9988 76.2639 52.4385C76.4785 52.6707 76.7606 52.8202 77.065 52.8631C77.3694 52.906 77.6786 52.8399 77.9433 52.6752C78.4149 52.3625 78.8288 51.9617 79.1648 51.4924C79.195 49.4726 79.1616 47.4468 79.1817 45.425C79.2019 45.2023 79.4447 45.1425 79.6183 45.1106C80.1152 45.0431 80.6183 45.0431 81.1152 45.1106C81.3115 45.1365 81.5913 45.2302 81.5775 45.4909C81.5775 48.4982 81.5775 51.5053 81.5775 54.5122C81.5932 54.7116 81.4052 54.8326 81.2404 54.8625C80.8054 54.9442 80.3607 54.9503 79.9239 54.8805C79.7566 54.8513 79.5346 54.7788 79.5189 54.5687C79.505 54.225 79.5189 53.8799 79.5189 53.5362L79.4723 53.5235C78.8252 54.3338 77.931 54.8801 76.9438 55.0686C76.1993 55.1773 75.4417 55.0233 74.7884 54.6305C74.3133 54.3113 73.9462 53.8411 73.7398 53.2875C73.5193 52.6487 73.41 51.973 73.4172 51.293C73.4084 49.3796 73.4172 47.4668 73.4128 45.554C73.4015 45.4917 73.4074 45.4273 73.4297 45.3684C73.452 45.3095 73.4898 45.2586 73.5386 45.2216C73.7485 45.1202 73.977 45.0687 74.2078 45.0707L74.2028 45.0687Z" fill="#E31E24"/>
<path fill-rule="evenodd" clip-rule="evenodd" d="M70.4247 45.3492C70.6747 45.2139 70.9476 45.1321 71.2276 45.1086C71.5076 45.0851 71.7892 45.1203 72.0563 45.2122C72.2047 45.2587 72.3903 45.3186 72.4337 45.5001C72.492 45.8063 72.5155 46.1188 72.5035 46.4309C72.5247 46.8112 72.4888 47.1927 72.3972 47.5611C72.3343 47.7406 72.1217 47.7373 71.9821 47.6768C71.6017 47.4816 71.1642 47.4515 70.7631 47.593C70.2647 47.8949 69.8507 48.3307 69.563 48.8562C69.5001 48.9619 69.4008 49.0603 69.4196 49.1966C69.4196 51.0276 69.4196 52.8586 69.4196 54.6896C69.4255 54.7647 69.4056 54.8395 69.3637 54.9005C69.3219 54.9615 69.2607 55.0046 69.1913 55.022C68.8934 55.1048 68.5859 55.1422 68.278 55.133C67.9298 55.1498 67.5811 55.1133 67.2427 55.0247C67.1711 55.0082 67.1075 54.965 67.0636 54.9029C67.0197 54.8409 66.9984 54.7642 67.0037 54.6869C67.0037 51.6796 67.0037 48.6725 67.0037 45.6656C66.993 45.4662 67.1893 45.3625 67.349 45.3332C67.7557 45.2615 68.1699 45.2513 68.5793 45.3026C68.7636 45.3259 69.0108 45.3824 69.0567 45.6078C69.0749 46.0001 69.0567 46.393 69.0643 46.7852C69.4237 46.2164 69.8847 45.7272 70.4216 45.3452L70.4247 45.3492Z" fill="#E31E24"/>
<path fill-rule="evenodd" clip-rule="evenodd" d="M63.5087 52.1255C64.001 52.0177 64.512 52.058 64.9837 52.2418C65.3667 52.4227 65.4541 52.9114 65.4824 53.3056C65.5357 53.7793 65.4752 54.2594 65.3063 54.7018C65.196 54.8618 65.0498 54.9905 64.8808 55.0761C64.7119 55.1617 64.5255 55.2017 64.3383 55.1925C63.8996 55.2545 63.4534 55.1786 63.0552 54.9744C62.918 54.8429 62.8104 54.6806 62.7404 54.4994C62.6704 54.3181 62.6398 54.1226 62.6508 53.9272C62.6049 53.4714 62.6643 53.0106 62.8237 52.5842C62.8968 52.4572 62.9966 52.3497 63.1154 52.2701C63.2342 52.1905 63.3688 52.141 63.5087 52.1255V52.1255Z" fill="#E31E24"/>
</svg>
